<?xml version="1.0" encoding="UTF-8"?>
<svg id="Layer_1" data-name="Layer 1" xmlns="http://www.w3.org/2000/svg" xmlns:xlink="http://www.w3.org/1999/xlink" viewBox="0 0 1080 489.38">
  <defs>
    <style>
      .cls-1 {
        fill: url(#linear-gradient-2);
      }

      .cls-2 {
        letter-spacing: .15em;
      }

      .cls-3 {
        font-size: 98px;
      }

      .cls-4 {
        letter-spacing: .03em;
      }

      .cls-5 {
        letter-spacing: .18em;
      }

      .cls-6 {
        letter-spacing: .05em;
      }

      .cls-7 {
        letter-spacing: .05em;
      }

      .cls-8 {
        letter-spacing: .17em;
      }

      .cls-9 {
        font-size: 104.06px;
      }

      .cls-10 {
        fill: url(#linear-gradient-3);
      }

      .cls-11 {
        fill: url(#linear-gradient);
      }

      .cls-12 {
        font-family: SourceSansRoman-Regular, 'Source Sans Variable';
        font-size: 25.2px;
        font-variation-settings: 'wght' 400;
      }

      .cls-12, .cls-13 {
        fill: #191919;
      }

      .cls-14 {
        letter-spacing: .17em;
      }

      .cls-13 {
        font-family: BoomBox, BoomBox;
      }

      .cls-15 {
        letter-spacing: .05em;
      }
    </style>
    <linearGradient id="linear-gradient" x1="426.55" y1="82.38" x2="212.31" y2="371.51" gradientUnits="userSpaceOnUse">
      <stop offset="0" stop-color="#70c8c1"/>
      <stop offset="1" stop-color="#30a5dd"/>
    </linearGradient>
    <linearGradient id="linear-gradient-2" x1="484.28" y1="125.16" x2="270.23" y2="414.05" xlink:href="#linear-gradient"/>
    <linearGradient id="linear-gradient-3" x1="523.28" y1="154.05" x2="309.23" y2="442.94" xlink:href="#linear-gradient"/>
  </defs>
  <text class="cls-13" transform="translate(474.78 211.7)"><tspan class="cls-9"><tspan class="cls-4" x="0" y="0">M</tspan><tspan class="cls-7" x="101.67" y="0">O</tspan><tspan x="203.54" y="0">CO</tspan></tspan><tspan class="cls-3"><tspan class="cls-6" x="0" y="117.6">B</tspan><tspan class="cls-15" x="94.96" y="117.6">U</tspan><tspan x="191.98" y="117.6">KU</tspan></tspan></text>
  <text class="cls-12" transform="translate(477.67 378.4)"><tspan class="cls-5" x="0" y="0">MONGGO </tspan><tspan class="cls-2" x="135.62" y="0">C</tspan><tspan class="cls-5" x="153.76" y="0">OB</tspan><tspan class="cls-8" x="194.28" y="0">A</tspan><tspan class="cls-5" x="212.38" y="0" xml:space="preserve"> BU</tspan><tspan class="cls-14" x="261.94" y="0">K</tspan><tspan class="cls-8" x="280.77" y="0">A</tspan><tspan class="cls-5" x="298.86" y="0" xml:space="preserve"> ILMU</tspan></text>
  <g>
    <path class="cls-11" d="m423.75,138.07h0v-33.39c0-17.04-13.81-30.85-30.85-30.85h-169.48c-11.6,0-22.42,4.59-30.48,12.93-7.77,8.04-11.97,18.53-11.91,29.67v219.16c0,23.64,19.17,42.81,42.81,42.81h192.63c23.64,0,42.81-19.17,42.81-42.81v-162.01c0-19.62-15.9-35.52-35.52-35.52Zm-222.17-21.83c0-5.78,2.22-11.21,6.3-15.34,4.18-4.23,9.96-6.49,15.9-6.49h92.94s76.18,0,76.18,0c5.68,0,10.28,4.6,10.28,10.28v33.39s-179.37,0-179.37,0c-11.86,0-21.82-9.45-22.21-21.07,0-.23-.01-.45-.01-.68v-.09Zm206.74,223.54c-7.89,0-15.1-3.01-20.53-7.94-8.78-7.97-20.17-12.44-32.03-12.44h-6.54c-10.62,0-19.23,8.61-19.23,19.23h0c0,10.62-8.61,19.23-19.23,19.23h-86.95c-12.28,0-22.24-9.96-22.24-22.24v-183.14c6.65,4.02,14.3,6.17,22.23,6.17h86.97c10.62,0,19.23,8.61,19.23,19.23h0c0,10.62-8.61,19.23-19.23,19.23h-5.52c-11.93,0-23.29-4.64-32.18-12.6-6.16-5.51-14.56-8.57-23.64-7.61-14.15,1.48-25.51,12.75-27.09,26.89-2.06,18.42,12.36,34.09,30.38,34.09,7.89,0,15.1-3.01,20.53-7.94,8.78-7.97,20.17-12.45,32.03-12.45h50.49c11.86,0,23.25-4.47,32.03-12.45,5.43-4.93,12.63-7.94,20.52-7.94,18.02,0,32.44,15.66,30.38,34.08-1.48,13.22-13.86,25.5-27.09,26.89-9.09.95-17.48-2.1-23.64-7.61-8.89-7.95-20.25-12.6-32.18-12.6h-5.67c-11.11,0-20.12,9.01-20.12,20.12v.53c0,11.11-9.01,20.12-20.12,20.12h-5.25c-11.66,0-22.75-4.58-31.37-12.43-6.16-5.61-14.62-8.74-23.78-7.79-14.15,1.46-25.56,12.77-27.14,26.91-2.06,18.42,12.37,34.08,30.38,34.08,7.89,0,15.1-3.01,20.53-7.94,8.78-7.97,20.17-12.45,32.03-12.45h50.51c11.93,0,23.29-4.64,32.18-12.6,6.16-5.51,14.56-8.57,23.64-7.61,13.23,1.39,25.61,13.67,27.09,26.89,2.06,18.42-12.36,34.08-30.38,34.08Zm-145.98-129.15c-.99,2.94-3.34,5.29-6.28,6.28-8.05,2.72-15.68-4.92-12.96-12.97,1.01-2.98,3.3-5.28,6.28-6.28,8.05-2.72,15.69,4.92,12.96,12.97Zm0,81.53c-.99,2.94-3.34,5.29-6.28,6.28-8.05,2.72-15.68-4.91-12.97-12.96.99-2.94,3.34-5.29,6.28-6.28,8.05-2.72,15.69,4.91,12.97,12.97Z"/>
    <path class="cls-1" d="m410.32,237.66c4.04-.77,7.24-3.97,8.01-8.01,1.36-7.16-4.83-13.36-11.99-11.99-4.04.77-7.24,3.97-8.01,8.01-1.36,7.16,4.83,13.36,11.99,11.99Z"/>
    <path class="cls-10" d="m406.34,299.19c-4.04.77-7.24,3.97-8.01,8.01-1.36,7.16,4.83,13.36,11.99,11.99,4.04-.77,7.24-3.97,8.01-8.01,1.36-7.16-4.83-13.36-11.99-11.99Z"/>
  </g>
</svg>